<?xml version="1.0" encoding="UTF-8"?>
<svg id="Layer_2" data-name="Layer 2" xmlns="http://www.w3.org/2000/svg" xmlns:xlink="http://www.w3.org/1999/xlink" viewBox="0 0 1038.81 755.35">
  <defs>
    <style>
      .cls-1 {
        fill: url(#linear-gradient-5);
      }

      .cls-2 {
        fill: url(#linear-gradient-4);
      }

      .cls-3 {
        fill: url(#linear-gradient-3);
      }

      .cls-4 {
        fill: url(#linear-gradient-2);
      }

      .cls-5 {
        fill: url(#linear-gradient);
      }

      .cls-6 {
        fill: #fff;
      }
    </style>
    <linearGradient id="linear-gradient" x1="186.62" y1="351.22" x2="410.76" y2="351.22" gradientUnits="userSpaceOnUse">
      <stop offset="0" stop-color="#ff2832"/>
      <stop offset="1" stop-color="#fff"/>
    </linearGradient>
    <linearGradient id="linear-gradient-2" x1="65.18" y1="440.46" x2="433.65" y2="440.46" gradientUnits="userSpaceOnUse">
      <stop offset="0" stop-color="#ffbc00"/>
      <stop offset="1" stop-color="#fff"/>
    </linearGradient>
    <linearGradient id="linear-gradient-3" x1="141.09" y1="511.2" x2="463.19" y2="511.2" gradientUnits="userSpaceOnUse">
      <stop offset="0" stop-color="#78ba3a"/>
      <stop offset="1" stop-color="#fff"/>
    </linearGradient>
    <linearGradient id="linear-gradient-4" x1="35.4" y1="597.78" x2="501.96" y2="597.78" gradientUnits="userSpaceOnUse">
      <stop offset="0" stop-color="#37b2ff"/>
      <stop offset="1" stop-color="#fff"/>
    </linearGradient>
    <linearGradient id="linear-gradient-5" x1="296.15" y1="650.03" x2="556.63" y2="650.03" gradientUnits="userSpaceOnUse">
      <stop offset="0" stop-color="#388eff"/>
      <stop offset="1" stop-color="#fff"/>
    </linearGradient>
  </defs>
  <g id="Layer_1-2" data-name="Layer 1">
    <g>
      <g>
        <path d="M1038.46,302.58l-.16-1.5-.29-1.48c-3.94-20.24-23.62-36.58-48.95-40.66-4.46-.72-9.06-1.09-13.66-1.09-9.83,0-19.63,1.62-29.09,4.8-22.84,7.65-43.68,23.46-63.62,48.19-5.77,7.1-11.37,14.8-16.67,22.94-20.47-39.36-56.42-122.23-64.88-231.44-2.69-36.13-33.42-64.44-69.96-64.44-.9,0-1.8.02-2.7.05l-.38.02c-13.76.67-26.64,5.19-37.5,12.92-4.04-12.54-11.33-23.98-21.32-32.81l-.36-.31c-13.33-11.46-30.22-17.77-47.54-17.77-2.7,0-5.43.15-7.85.43-38.38,4-67.06,37.06-65.44,75.34.1,3.08.24,6.13.37,9.19-10.58-5.86-22.28-8.96-34.27-8.96-4.92,0-9.9.52-14.53,1.49-37.79,7.64-62.76,43.53-56.84,81.8,2.17,13.75,4.55,27.17,6.92,39.65-7.09-2.35-14.62-3.62-22.39-3.62-4.89,0-9.81.51-14.54,1.5-35,7.25-59.3,39.73-56.54,75.54l.09.95c.41,3.94.94,7.12,1.47,9.88l-159.33,28.95c-25.59,4.67-44.94,26.02-47.06,52-.45,5.62-.09,11.2,1.01,16.33,1.4,6.77,3.99,13.05,7.5,18.68l-82.83,15.05c-29.96,5.4-50.55,33.34-46.88,63.59l.09.73c3.78,28.5,28.26,49.96,57.03,49.96,3.13,0,6.28-.26,9.63-.81l9.84-1.79c-.71,3.61-1.11,7.32-1.11,11.12,0,3.08.23,6.07.69,8.9,1.22,7.81,4.07,15.05,8.09,21.46l-67.04,12.19c-15.42,2.75-28.76,11.44-37.59,24.51-8.78,13.03-11.83,28.63-8.61,43.94l.29,1.26c5.96,25.83,29.54,44.58,56.06,44.58,3.05,0,6.17-.26,9.51-.78l.43-.07,194.38-35.38c-.4,2.02-.74,4.06-.93,6.14-.48,5.26-.21,10.56.81,15.76,5.14,27.19,28.88,46.91,56.54,46.91,3.13,0,6.28-.26,9.63-.81l217.3-39.57c6.92,6.33,13.69,12,20.22,17.03l.39.39.21.15.99.93,1.56.93,7.86,5.98h1.1c44.32,28.75,93.77,43.9,143.67,43.9h0c23.45,0,46.89-3.35,69.64-9.94,51.21-14.8,88.53-40.03,117.46-79.41,34.37-46.89,56.49-114.05,67.62-205.33,4.35-35.81,21.14-62.57,35.93-86.15,15.06-23.81,29.29-46.3,26.54-71.94Z"/>
        <path class="cls-6" d="M711.51,330.86c-34.92-81.87-46.45-157.93-49.92-210.65v-.67c-1.17-15.04-2.09-30.99-2.8-47.87-.46-10.4-5.09-20.13-12.95-27.07-8.07-6.93-18.26-10.15-28.66-8.99-19.67,2.05-34.67,19.18-33.75,38.81,4.39,140.81,48.54,249.71,60.32,276.53,21.51-9.48,44.4-15.96,67.75-20.1Z"/>
        <path class="cls-6" d="M1003.28,306.36c-.67-3.47-6.94-10.4-19.88-12.49-8.53-1.38-17.55-.46-25.86,2.33-19.21,6.44-34.92,21.48-47.41,36.97-6.01,7.39-11.57,15.25-16.66,23.35-2.05,3.47-4.14,6.93-6.23,10.4-2.55,4.63-4.39,9.94-7.85,13.87-2.8,3.71-7.18,5.09-11.36,6.72-4.14,1.63-8.31,3.47-12.24,5.55-7.85,4.14-15.25,9.02-22.43,14.33-19.18,14.79-35.13,34.46-44.61,56.86-4.63,16.42-27.28,11.11-23.6-5.31,3.25-11.78,8.56-22.89,14.58-33.5,14.58-25.69,36.3-47.2,61.74-62.66-20.34-36.3-65.66-129.49-75.61-257.81-1.38-18.5-17.34-32.37-36.05-31.66-9.48.46-18.04,4.39-24.31,11.32-6.23,6.93-9.48,15.71-9.02,24.98,2.55,51.34,13.2,129.91,50.42,214.33.46.92.71,1.84.92,2.76,7.39-.46,14.79-.67,22.22-.67,15-.25,16.42,21.48,1.59,23.35-28.2,1.84-56.4,7.15-83,16.88-25.44,9.48-49.92,21.94-70.26,39.52-18.04,17.8-43.02-9.94-23.14-26.11,5.8-4.42,11.78-8.56,17.8-12.28-6.93-15-25.9-59.4-41.36-123.69,0-.21-.25-.46-.25-.71-7.85-30.28-15.04-64.04-21.26-101.01-1.84-9.94-7.18-18.29-15.5-24.06-8.31-5.77-18.04-7.85-27.98-5.77-19.42,3.93-31.91,22.18-28.9,41.61,8.1,51.34,19.21,98.04,21.3,106.6.21.21.21.46.21.67.25.46.25.71.25.71,9.69,35.38,24.27,82.75,44.37,128.78,3.93,9.02-.21,19.18-9.02,23.1-8.99,3.93-19.18-.21-23.1-9.02-23.6-53.85-40.01-109.82-49.71-147.04-4.85-18.5-23.35-30.04-42.07-26.11-17.76,3.68-29.82,20.31-28.45,38.17.65,6.26,1.68,9.86,2.62,14.36,22.2,106.83,74.86,301.33,194.27,392.08t.07.04c.07.07.18.11.25.18,58.52,41.15,126.94,54.1,192.36,35.13,43.94-12.7,74.47-33.29,98.74-66.34,30.5-41.61,50.63-103.34,61.03-188.68,5.31-43.69,25.19-75.36,41.15-100.8,12.74-20.13,22.68-36.05,21.26-49.25ZM868.97,533.85c-1.62,14.1-4.86,28.44-9.94,42.31-26.82,78.15-118.38,107.51-190.75,74.91-22.69-10.11-43.1-25.01-58.4-44.42-5.01,5.1-9.92,10.26-14.66,15.52-15.03,15.49-37.46-7.63-21.04-22.2,20.81-16.65,42.31-31.44,64.97-45.09,4.39-2.54,9.94-1.16,12.48,3.24,2.31,3.93,1.39,8.79-2.08,11.79-7.18,6.05-14.21,12.36-21.13,18.78,31.81,30.88,79.23,47.03,122.4,38.1,52.72-9.71,79.54-49.48,93.87-98.03,2.08-6.47,9.02-10.17,15.72-8.09,5.78,1.85,9.25,7.4,8.55,13.18Z"/>
      </g>
      <g>
        <path class="cls-5" d="M410.76,354.58l-197.95,36.05c-1.31.21-2.69.35-4.03.35-10.44,0-19.57-7.43-21.69-17.69-.42-1.98-.57-4.14-.39-6.37.81-9.98,8.28-18.19,18.15-19.99l195.3-35.49c3.11,13.55,6.62,28.02,10.61,43.13Z"/>
        <path class="cls-4" d="M433.65,430.4l-342.3,62.34c-1.31.21-2.65.35-4,.35-11.11,0-20.56-8.31-21.97-19.32l-.04-.25c-1.42-11.68,6.47-22.43,18.04-24.52l336.67-61.17c4.14,13.9,8.67,28.16,13.59,42.56Z"/>
        <path class="cls-3" d="M463.19,505.08l-295.91,53.81c-1.31.21-2.65.35-4,.35-10.9,0-20.31-8.14-21.94-18.93-.18-1.06-.25-2.19-.25-3.33,0-10.72,7.68-19.88,18.22-21.79l286.29-52.04c5.41,14.01,11.25,28.06,17.58,41.93Z"/>
        <path class="cls-2" d="M501.96,577.96l-440.33,80.13c-1.34.21-2.69.35-4.03.35-10.26,0-19.28-7.18-21.58-17.16l-.14-.6c-1.24-5.87-.04-11.89,3.33-16.88,3.4-5.02,8.53-8.38,14.47-9.45l425.02-77.27c7.25,14.01,15,27.67,23.28,40.86Z"/>
        <path class="cls-1" d="M556.63,648.02l-234.28,42.67c-1.31.21-2.65.35-4,.35-10.68,0-19.85-7.64-21.79-18.19-.39-1.95-.49-3.96-.32-5.91.88-9.94,8.31-18.15,18.15-19.95l208.88-37.96c10.37,13.87,21.48,26.96,33.36,38.99Z"/>
      </g>
    </g>
  </g>
</svg>